<svg width="24" height="24" viewBox="0 0 24 24" fill="none" xmlns="http://www.w3.org/2000/svg">
<path d="M23.0306 3.96943L20.0306 0.969426C19.8899 0.828695 19.699 0.749634 19.5 0.749634C19.301 0.749634 19.1101 0.828695 18.9694 0.969426C18.8287 1.11016 18.7496 1.30103 18.7496 1.50005C18.7496 1.69907 18.8287 1.88995 18.9694 2.03068L19.1081 2.16849L13.936 6.04786L10.3528 6.76505C10.2078 6.79411 10.0744 6.86518 9.9694 6.96943L2.15627 14.7807C1.73435 15.2026 1.49731 15.7749 1.49731 16.3716C1.49731 16.9683 1.73435 17.5406 2.15627 17.9626L6.03752 21.8438C6.45947 22.2657 7.03175 22.5028 7.62846 22.5028C8.22517 22.5028 8.79744 22.2657 9.2194 21.8438L17.0306 14.0335C17.1351 13.9286 17.2062 13.7952 17.235 13.6501L17.9522 10.0669L21.8316 4.89474L21.9694 5.03349C22.0391 5.10317 22.1218 5.15845 22.2128 5.19616C22.3039 5.23387 22.4015 5.25328 22.5 5.25328C22.5986 5.25328 22.6961 5.23387 22.7872 5.19616C22.8782 5.15845 22.961 5.10317 23.0306 5.03349C23.1003 4.96381 23.1556 4.88108 23.1933 4.79004C23.231 4.69899 23.2504 4.60141 23.2504 4.50286C23.2504 4.40432 23.231 4.30674 23.1933 4.21569C23.1556 4.12465 23.1003 4.04192 23.0306 3.97224V3.96943ZM9.00002 10.0604L13.9397 15.0001L9.75002 19.1897L4.81033 14.2501L9.00002 10.0604ZM7.62846 21.0001C7.53005 21.0003 7.43257 20.9811 7.34165 20.9434C7.25073 20.9058 7.16818 20.8504 7.09877 20.7807L3.2194 16.9013C3.07885 16.7607 2.9999 16.57 2.9999 16.3711C2.9999 16.1723 3.07885 15.9816 3.2194 15.841L3.75002 15.3104L8.68971 20.2501L8.15627 20.7807C8.01619 20.9206 7.82646 20.9995 7.62846 21.0001ZM16.65 9.30005C16.5828 9.38952 16.5366 9.49304 16.515 9.60286L15.8091 13.1307L15 13.9397L10.0603 9.00005L10.8694 8.19099L14.3972 7.48505C14.507 7.46345 14.6105 7.4173 14.7 7.35005L20.1797 3.24005L20.76 3.82036L16.65 9.30005Z" fill="#FFC788"/>
</svg>
