<svg width="21" height="21" viewBox="0 0 21 21" fill="none" xmlns="http://www.w3.org/2000/svg">
<path d="M20.5756 4.51906C20.5052 4.43481 20.4172 4.36705 20.3177 4.32056C20.2183 4.27407 20.1098 4.24998 20 4.25H4.87625L4.30625 1.11594C4.27485 0.943126 4.1838 0.786814 4.04897 0.674254C3.91414 0.561694 3.74408 0.500025 3.56844 0.5H1.25C1.05109 0.5 0.860322 0.579018 0.71967 0.71967C0.579018 0.860322 0.5 1.05109 0.5 1.25C0.5 1.44891 0.579018 1.63968 0.71967 1.78033C0.860322 1.92098 1.05109 2 1.25 2H2.9375L5.33375 15.1522C5.40434 15.5422 5.57671 15.9067 5.83344 16.2087C5.47911 16.5397 5.22336 16.9623 5.09455 17.4298C4.96575 17.8972 4.96892 18.3912 5.10371 18.8569C5.23851 19.3226 5.49966 19.7419 5.85821 20.0683C6.21676 20.3947 6.6587 20.6154 7.13502 20.7059C7.61134 20.7965 8.10344 20.7533 8.55673 20.5813C9.01003 20.4092 9.40682 20.115 9.7031 19.7312C9.99938 19.3474 10.1836 18.889 10.2353 18.407C10.287 17.9249 10.2041 17.4379 9.99594 17H14.2541C14.0863 17.3513 13.9995 17.7357 14 18.125C14 18.6442 14.154 19.1517 14.4424 19.5834C14.7308 20.0151 15.1408 20.3515 15.6205 20.5502C16.1001 20.7489 16.6279 20.8008 17.1371 20.6996C17.6463 20.5983 18.114 20.3483 18.4812 19.9812C18.8483 19.614 19.0983 19.1463 19.1996 18.6371C19.3008 18.1279 19.2489 17.6001 19.0502 17.1205C18.8515 16.6408 18.5151 16.2308 18.0834 15.9424C17.6517 15.654 17.1442 15.5 16.625 15.5H7.54719C7.37155 15.5 7.20149 15.4383 7.06665 15.3257C6.93182 15.2132 6.84077 15.0569 6.80938 14.8841L6.51219 13.25H17.3872C17.9141 13.2499 18.4243 13.0649 18.8288 12.7272C19.2333 12.3896 19.5064 11.9206 19.6006 11.4022L20.7406 5.13406C20.7599 5.02572 20.7551 4.91447 20.7266 4.80818C20.6981 4.7019 20.6466 4.60319 20.5756 4.51906ZM8.75 18.125C8.75 18.3475 8.68402 18.565 8.5604 18.75C8.43679 18.935 8.26109 19.0792 8.05552 19.1644C7.84995 19.2495 7.62375 19.2718 7.40552 19.2284C7.18729 19.185 6.98684 19.0778 6.8295 18.9205C6.67217 18.7632 6.56502 18.5627 6.52162 18.3445C6.47821 18.1262 6.50049 17.9 6.58564 17.6945C6.67078 17.4889 6.81498 17.3132 6.99998 17.1896C7.18499 17.066 7.4025 17 7.625 17C7.92337 17 8.20952 17.1185 8.4205 17.3295C8.63147 17.5405 8.75 17.8266 8.75 18.125ZM17.75 18.125C17.75 18.3475 17.684 18.565 17.5604 18.75C17.4368 18.935 17.2611 19.0792 17.0555 19.1644C16.85 19.2495 16.6238 19.2718 16.4055 19.2284C16.1873 19.185 15.9868 19.0778 15.8295 18.9205C15.6722 18.7632 15.565 18.5627 15.5216 18.3445C15.4782 18.1262 15.5005 17.9 15.5856 17.6945C15.6708 17.4889 15.815 17.3132 16 17.1896C16.185 17.066 16.4025 17 16.625 17C16.9234 17 17.2095 17.1185 17.4205 17.3295C17.6315 17.5405 17.75 17.8266 17.75 18.125ZM18.125 11.1341C18.0935 11.3074 18.0021 11.464 17.8666 11.5766C17.7312 11.6893 17.5605 11.7506 17.3844 11.75H6.23938L5.14906 5.75H19.1009L18.125 11.1341Z" fill="#FFFBD6"/>
</svg>
