<svg width="32" height="32" viewBox="0 0 32 32" fill="none" xmlns="http://www.w3.org/2000/svg">
<path d="M30.41 8.53004L27.41 5.58504C27.0352 5.21139 26.5275 5.00159 25.9982 5.00159C25.4689 5.00159 24.9612 5.21139 24.5863 5.58504L13 17.0288L8.41379 12.5788C8.03814 12.2064 7.53023 11.9979 7.00125 11.9991C6.47227 12.0003 5.96529 12.2109 5.59129 12.585L2.59129 15.585C2.21688 15.96 2.00659 16.4683 2.00659 16.9982C2.00659 17.5281 2.21688 18.0363 2.59129 18.4113L11.5438 27.4113C11.7295 27.5971 11.95 27.7444 12.1927 27.845C12.4354 27.9455 12.6955 27.9972 12.9582 27.9972C13.2208 27.9972 13.481 27.9455 13.7236 27.845C13.9663 27.7444 14.1868 27.5971 14.3725 27.4113L30.4163 11.3638C30.6024 11.1776 30.7499 10.9564 30.8503 10.7131C30.9508 10.4697 31.0022 10.2089 31.0016 9.94562C31.001 9.68234 30.9485 9.42177 30.847 9.17885C30.7454 8.93593 30.597 8.71544 30.41 8.53004ZM12.9525 26L4.00004 17L7.00004 14C7.00368 14.003 7.00703 14.0064 7.01004 14.01L12.3038 19.1463C12.4907 19.3291 12.7417 19.4315 13.0032 19.4315C13.2646 19.4315 13.5157 19.3291 13.7025 19.1463L26.0075 7.00004L29 9.95004L12.9525 26Z" fill="#FFFBD6"/>
</svg>
