<svg width="24" height="24" viewBox="0 0 24 24" fill="none" xmlns="http://www.w3.org/2000/svg">
<path d="M15.4209 15.3291C15.5779 15.4866 15.6846 15.687 15.7277 15.9051C15.7708 16.1233 15.7483 16.3493 15.6631 16.5546C15.5778 16.7599 15.4336 16.9354 15.2487 17.0588C15.0638 17.1823 14.8464 17.2482 14.6241 17.2482C14.4017 17.2482 14.1844 17.1823 13.9995 17.0588C13.8145 16.9354 13.6703 16.7599 13.5851 16.5546C13.4998 16.3493 13.4773 16.1233 13.5204 15.9051C13.5635 15.687 13.6702 15.4866 13.8272 15.3291C13.9317 15.2242 14.0559 15.141 14.1926 15.0842C14.3294 15.0274 14.476 14.9982 14.6241 14.9982C14.7721 14.9982 14.9187 15.0274 15.0555 15.0842C15.1922 15.141 15.3164 15.2242 15.4209 15.3291ZM7.82719 14.5791C7.67025 14.7366 7.56349 14.937 7.5204 15.1551C7.47731 15.3733 7.49981 15.5993 7.58508 15.8046C7.67034 16.0099 7.81454 16.1854 7.99946 16.3088C8.18438 16.4323 8.40173 16.4982 8.62407 16.4982C8.8464 16.4982 9.06376 16.4323 9.24868 16.3088C9.4336 16.1854 9.57779 16.0099 9.66306 15.8046C9.74832 15.5993 9.77083 15.3733 9.72773 15.1551C9.68464 14.937 9.57788 14.7366 9.42094 14.5791C9.31646 14.4745 9.19239 14.3915 9.05581 14.3349C8.91924 14.2783 8.77285 14.2491 8.625 14.2491C8.47716 14.2491 8.33077 14.2783 8.1942 14.3349C8.05762 14.3915 7.93355 14.4745 7.82907 14.5791H7.82719ZM8.67094 10.9228C8.82788 10.7653 8.93464 10.5649 8.97773 10.3467C9.02083 10.1286 8.99832 9.90262 8.91306 9.69728C8.82779 9.49194 8.6836 9.31647 8.49868 9.19303C8.31376 9.06958 8.0964 9.0037 7.87407 9.0037C7.65173 9.0037 7.43438 9.06958 7.24946 9.19303C7.06454 9.31647 6.92034 9.49194 6.83508 9.69728C6.74981 9.90262 6.72731 10.1286 6.7704 10.3467C6.81349 10.5649 6.92025 10.7653 7.07719 10.9228C7.18183 11.0276 7.30612 11.1106 7.44293 11.1673C7.57975 11.2239 7.72639 11.2529 7.87446 11.2528C8.02252 11.2526 8.1691 11.2232 8.30578 11.1662C8.44245 11.1093 8.56655 11.0259 8.67094 10.9209V10.9228ZM13.1709 10.8291C13.0135 10.6721 12.813 10.5654 12.5949 10.5223C12.3767 10.4792 12.1507 10.5017 11.9454 10.5869C11.7401 10.6722 11.5646 10.8164 11.4412 11.0013C11.3177 11.1862 11.2518 11.4036 11.2518 11.6259C11.2518 11.8483 11.3177 12.0656 11.4412 12.2505C11.5646 12.4355 11.7401 12.5797 11.9454 12.6649C12.1507 12.7502 12.3767 12.7727 12.5949 12.7296C12.813 12.6865 13.0135 12.5798 13.1709 12.4228C13.2758 12.3183 13.359 12.1941 13.4158 12.0574C13.4726 11.9206 13.5018 11.774 13.5018 11.6259C13.5018 11.4779 13.4726 11.3313 13.4158 11.1945C13.359 11.0578 13.2758 10.9336 13.1709 10.8291ZM21.75 12C21.75 13.9284 21.1782 15.8134 20.1068 17.4168C19.0355 19.0202 17.5127 20.2699 15.7312 21.0078C13.9496 21.7458 11.9892 21.9389 10.0979 21.5627C8.20656 21.1865 6.46928 20.2579 5.10571 18.8943C3.74215 17.5307 2.81355 15.7934 2.43735 13.9021C2.06114 12.0108 2.25422 10.0504 2.99218 8.26884C3.73013 6.48726 4.97982 4.96451 6.58319 3.89317C8.18657 2.82183 10.0716 2.25 12 2.25C12.1989 2.25 12.3897 2.32902 12.5303 2.46967C12.671 2.61032 12.75 2.80109 12.75 3C12.75 3.99456 13.1451 4.94839 13.8484 5.65165C14.5516 6.35491 15.5054 6.75 16.5 6.75C16.6989 6.75 16.8897 6.82902 17.0303 6.96967C17.171 7.11032 17.25 7.30109 17.25 7.5C17.25 8.49456 17.6451 9.44839 18.3484 10.1517C19.0516 10.8549 20.0054 11.25 21 11.25C21.1989 11.25 21.3897 11.329 21.5303 11.4697C21.671 11.6103 21.75 11.8011 21.75 12ZM20.2209 12.6928C19.0977 12.5223 18.0598 11.9929 17.2623 11.1836C16.4649 10.3744 15.9508 9.32878 15.7969 8.20312C14.6712 8.0492 13.6256 7.5351 12.8164 6.73768C12.0071 5.94025 11.4777 4.90233 11.3072 3.77906C9.74009 3.91115 8.24339 4.48839 6.99343 5.44279C5.74348 6.39719 4.79235 7.68897 4.25212 9.16593C3.71189 10.6429 3.60507 12.2435 3.94423 13.7791C4.2834 15.3148 5.05442 16.7215 6.16646 17.8335C7.2785 18.9456 8.68522 19.7166 10.2209 20.0558C11.7565 20.3949 13.3571 20.2881 14.8341 19.7479C16.311 19.2077 17.6028 18.2565 18.5572 17.0066C19.5116 15.7566 20.0889 14.2599 20.2209 12.6928Z" fill="#A8CF45"/>
</svg>
