<svg width="21" height="13" viewBox="0 0 21 13" fill="none" xmlns="http://www.w3.org/2000/svg">
<path d="M17.3751 6.375C17.2023 6.37539 17.0299 6.38976 16.8595 6.41797L16.4048 5.23516C16.7231 5.16211 17.0485 5.12516 17.3751 5.125C17.5409 5.125 17.6998 5.05915 17.817 4.94194C17.9342 4.82473 18.0001 4.66576 18.0001 4.5C18.0001 4.33424 17.9342 4.17527 17.817 4.05806C17.6998 3.94085 17.5409 3.875 17.3751 3.875H15.8813L14.8337 1.15078C14.7883 1.0328 14.7083 0.931344 14.6041 0.859793C14.4999 0.788241 14.3765 0.74996 14.2501 0.75H11.7501C11.5843 0.75 11.4254 0.815848 11.3082 0.933058C11.1909 1.05027 11.1251 1.20924 11.1251 1.375C11.1251 1.54076 11.1909 1.69973 11.3082 1.81694C11.4254 1.93415 11.5843 2 11.7501 2H13.8212L14.5423 3.875H12.3751C10.9298 3.875 9.75791 4.21172 8.98681 4.84844C8.80536 4.99482 8.58658 5.08753 8.3552 5.11611C8.12382 5.14469 7.88906 5.10799 7.67744 5.01016C6.85088 4.63437 2.93213 3.04141 2.58681 2.90625L2.14072 2.73125C2.01641 2.67691 1.8848 2.64111 1.75009 2.625C1.60438 2.62535 1.46337 2.6766 1.35144 2.7699C1.23951 2.86319 1.1637 2.99266 1.1371 3.13592C1.11051 3.27919 1.1348 3.42724 1.20579 3.55449C1.27678 3.68174 1.39 3.78019 1.52588 3.83281C1.56181 3.84687 5.21259 5.2625 7.16103 6.14766C7.58602 6.341 8.05649 6.41206 8.51962 6.35286C8.98276 6.29366 9.42022 6.10653 9.78291 5.8125C10.1626 5.5 10.9212 5.125 12.3759 5.125H13.8462C12.9338 5.85742 12.2735 6.857 11.9579 7.98359C11.8823 8.24231 11.7244 8.46931 11.5081 8.63017C11.2918 8.79103 11.029 8.87699 10.7595 8.875H6.68759C6.53271 8.11622 6.1016 7.44199 5.47785 6.983C4.8541 6.52402 4.08214 6.31299 3.31164 6.39082C2.54114 6.46866 1.82699 6.82982 1.30763 7.40428C0.788282 7.97874 0.500732 8.72558 0.500732 9.5C0.500732 10.2744 0.788282 11.0213 1.30763 11.5957C1.82699 12.1702 2.54114 12.5313 3.31164 12.6092C4.08214 12.687 4.8541 12.476 5.47785 12.017C6.1016 11.558 6.53271 10.8838 6.68759 10.125H10.7595C11.3015 10.1262 11.8292 9.95067 12.2626 9.62501C12.696 9.29936 13.0114 8.84132 13.161 8.32031C13.3169 7.76612 13.5807 7.24815 13.9372 6.79609C14.2936 6.34403 14.7358 5.96677 15.2384 5.68594L15.6931 6.86797C15.0596 7.27342 14.5936 7.89373 14.3806 8.61506C14.1676 9.33638 14.222 10.1103 14.5336 10.7948C14.8452 11.4793 15.3933 12.0285 16.0772 12.3415C16.761 12.6545 17.5349 12.7104 18.2566 12.4989C18.9784 12.2873 19.5996 11.8226 20.0063 11.1899C20.4131 10.5573 20.578 9.79919 20.4708 9.05475C20.3637 8.31031 19.9916 7.6295 19.423 7.13725C18.8543 6.64501 18.1272 6.37437 17.3751 6.375ZM3.62509 10.125H5.39228C5.24485 10.542 4.95474 10.8935 4.57323 11.1173C4.19173 11.3411 3.74338 11.4228 3.30745 11.348C2.87151 11.2732 2.47606 11.0467 2.19097 10.7085C1.90588 10.3704 1.74952 9.9423 1.74952 9.5C1.74952 9.0577 1.90588 8.62963 2.19097 8.29146C2.47606 7.95329 2.87151 7.7268 3.30745 7.652C3.74338 7.57721 4.19173 7.65893 4.57323 7.88273C4.95474 8.10653 5.24485 8.45799 5.39228 8.875H3.62509C3.45933 8.875 3.30036 8.94085 3.18315 9.05806C3.06594 9.17527 3.00009 9.33424 3.00009 9.5C3.00009 9.66576 3.06594 9.82473 3.18315 9.94194C3.30036 10.0592 3.45933 10.125 3.62509 10.125ZM17.3751 11.375C16.9921 11.3745 16.6184 11.2568 16.3044 11.0376C15.9903 10.8184 15.7509 10.5083 15.6183 10.149C15.4858 9.78967 15.4664 9.39838 15.5629 9.02774C15.6593 8.65709 15.867 8.32488 16.1579 8.07578L16.7915 9.72422C16.851 9.879 16.9695 10.0038 17.121 10.0712C17.2725 10.1386 17.4445 10.1431 17.5993 10.0836C17.7541 10.0241 17.8789 9.90561 17.9463 9.75412C18.0137 9.60262 18.0182 9.43056 17.9587 9.27578L17.3243 7.625H17.3751C17.8724 7.625 18.3493 7.82254 18.7009 8.17417C19.0526 8.52581 19.2501 9.00272 19.2501 9.5C19.2501 9.99728 19.0526 10.4742 18.7009 10.8258C18.3493 11.1775 17.8724 11.375 17.3751 11.375Z" fill="#F15D87"/>
</svg>
