<svg width="24" height="24" viewBox="0 0 24 24" fill="none" xmlns="http://www.w3.org/2000/svg">
<path d="M12 0.75C10.2104 0.751985 8.49466 1.46378 7.22922 2.72922C5.96378 3.99466 5.25199 5.7104 5.25 7.5V16.5C5.25 16.8978 5.40804 17.2794 5.68934 17.5607C5.97064 17.842 6.35218 18 6.75 18H9.75V21.75C9.75 22.3467 9.98705 22.919 10.409 23.341C10.831 23.7629 11.4033 24 12 24C12.5967 24 13.169 23.7629 13.591 23.341C14.0129 22.919 14.25 22.3467 14.25 21.75V18H17.25C17.6478 18 18.0294 17.842 18.3107 17.5607C18.592 17.2794 18.75 16.8978 18.75 16.5V7.5C18.748 5.7104 18.0362 3.99466 16.7708 2.72922C15.5053 1.46378 13.7896 0.751985 12 0.75ZM12.75 21.75C12.75 21.9489 12.671 22.1397 12.5303 22.2803C12.3897 22.421 12.1989 22.5 12 22.5C11.8011 22.5 11.6103 22.421 11.4697 22.2803C11.329 22.1397 11.25 21.9489 11.25 21.75V18H12.75V21.75ZM17.25 16.5H6.75V7.5C6.75 6.10761 7.30312 4.77226 8.28769 3.78769C9.27226 2.80312 10.6076 2.25 12 2.25C13.3924 2.25 14.7277 2.80312 15.7123 3.78769C16.6969 4.77226 17.25 6.10761 17.25 7.5V16.5ZM11.25 6.75V14.25C11.25 14.4489 11.171 14.6397 11.0303 14.7803C10.8897 14.921 10.6989 15 10.5 15C10.3011 15 10.1103 14.921 9.96967 14.7803C9.82902 14.6397 9.75 14.4489 9.75 14.25V6.75C9.75 6.55109 9.82902 6.36032 9.96967 6.21967C10.1103 6.07902 10.3011 6 10.5 6C10.6989 6 10.8897 6.07902 11.0303 6.21967C11.171 6.36032 11.25 6.55109 11.25 6.75ZM14.25 6.75V14.25C14.25 14.4489 14.171 14.6397 14.0303 14.7803C13.8897 14.921 13.6989 15 13.5 15C13.3011 15 13.1103 14.921 12.9697 14.7803C12.829 14.6397 12.75 14.4489 12.75 14.25V6.75C12.75 6.55109 12.829 6.36032 12.9697 6.21967C13.1103 6.07902 13.3011 6 13.5 6C13.6989 6 13.8897 6.07902 14.0303 6.21967C14.171 6.36032 14.25 6.55109 14.25 6.75Z" fill="#F493AE"/>
</svg>
