<svg width="18" height="18" viewBox="0 0 18 18" fill="none" xmlns="http://www.w3.org/2000/svg">
<path d="M17.3859 8.11867L9.88117 0.613979C9.64696 0.381165 9.33015 0.250488 8.99992 0.250488C8.66968 0.250488 8.35287 0.381165 8.11867 0.613979L0.613979 8.11867C0.381165 8.35287 0.250488 8.66968 0.250488 8.99992C0.250488 9.33015 0.381165 9.64696 0.613979 9.88117L8.11867 17.3859C8.35287 17.6187 8.66968 17.7493 8.99992 17.7493C9.33015 17.7493 9.64696 17.6187 9.88117 17.3859L17.3859 9.88117C17.6187 9.64696 17.7493 9.33015 17.7493 8.99992C17.7493 8.66968 17.6187 8.35287 17.3859 8.11867ZM8.99992 1.49992L13.3749 5.87492H11.4999C11.4178 5.87485 11.3365 5.89096 11.2606 5.92233C11.1848 5.9537 11.1158 5.99971 11.0577 6.05773L8.99992 8.11554L6.9421 6.05773C6.88402 5.99971 6.81507 5.9537 6.7392 5.92233C6.66333 5.89096 6.58202 5.87485 6.49992 5.87492H4.62492L8.99992 1.49992ZM3.37492 7.12492H6.24054L8.11554 8.99992L6.24054 10.8749H3.37492L1.49992 8.99992L3.37492 7.12492ZM8.99992 16.4999L4.62492 12.1249H6.49992C6.58202 12.125 6.66333 12.1089 6.7392 12.0775C6.81507 12.0461 6.88402 12.0001 6.9421 11.9421L8.99992 9.88351L11.0577 11.9421C11.1158 12.0001 11.1848 12.0461 11.2606 12.0775C11.3365 12.1089 11.4178 12.125 11.4999 12.1249H13.3749L8.99992 16.4999ZM14.6249 10.8749H11.7593L9.88429 8.99992L11.7593 7.12492H14.6249L16.4999 8.99992L14.6249 10.8749Z" fill="#FFFBD6"/>
</svg>
