<svg width="18" height="18" viewBox="0 0 18 18" fill="none" xmlns="http://www.w3.org/2000/svg">
<path d="M17.386 8.11879L9.88129 0.614101C9.64709 0.381288 9.33027 0.25061 9.00004 0.25061C8.66981 0.25061 8.35299 0.381288 8.11879 0.614101L0.614101 8.11879C0.381288 8.35299 0.25061 8.66981 0.25061 9.00004C0.25061 9.33027 0.381288 9.64709 0.614101 9.88129L8.11879 17.386C8.35299 17.6188 8.66981 17.7495 9.00004 17.7495C9.33027 17.7495 9.64709 17.6188 9.88129 17.386L17.386 9.88129C17.6188 9.64709 17.7495 9.33027 17.7495 9.00004C17.7495 8.66981 17.6188 8.35299 17.386 8.11879ZM9.00004 1.50004L13.375 5.87504H11.5C11.4179 5.87497 11.3366 5.89109 11.2608 5.92245C11.1849 5.95382 11.1159 5.99983 11.0578 6.05785L9.00004 8.11566L6.94223 6.05785C6.88414 5.99983 6.81519 5.95382 6.73932 5.92245C6.66345 5.89109 6.58214 5.87497 6.50004 5.87504H4.62504L9.00004 1.50004ZM3.37504 7.12504H6.24066L8.11566 9.00004L6.24066 10.875H3.37504L1.50004 9.00004L3.37504 7.12504ZM9.00004 16.5L4.62504 12.125H6.50004C6.58214 12.1251 6.66345 12.109 6.73932 12.0776C6.81519 12.0463 6.88414 12.0002 6.94223 11.9422L9.00004 9.88363L11.0578 11.9422C11.1159 12.0002 11.1849 12.0463 11.2608 12.0776C11.3366 12.109 11.4179 12.1251 11.5 12.125H13.375L9.00004 16.5ZM14.625 10.875H11.7594L9.88441 9.00004L11.7594 7.12504H14.625L16.5 9.00004L14.625 10.875Z" fill="#F15D87"/>
</svg>
